<?xml version="1.0" encoding="UTF-8" standalone="no"?>
<!-- Created with Inkscape (http://www.inkscape.org/) -->

<svg
   width="291.74414"
   height="298.77106"
   viewBox="0 0 291.74414 298.77106"
   version="1.1"
   id="SVGRoot"
   xmlns="http://www.w3.org/2000/svg"
   xmlns:svg="http://www.w3.org/2000/svg">
  <defs
     id="defs9" />
  <g
     id="layer2"
     transform="translate(-294.17578,-346.22894)">
    <path
       id="rect2243"
       style="fill:#333333;stroke-width:1.32501;stroke-opacity:0.00304877"
       d="m 364.90384,494.32802 -62.43841,9.90428 110.92124,74.9233 24.11333,5.18542 24.11333,-5.18542 110.92124,-74.9233 -57.95671,-9.19326 a 85.006233,97.105089 0 0 1 -74.66654,51.20849 85.006233,97.105089 0 0 1 -75.00748,-51.91951 z" />
  </g>
  <g
     id="layer1"
     transform="translate(-294.17578,-346.22894)">
    <path
       id="path308"
       style="fill:#333333;stroke-width:0.938857"
       d="M 505.99805,515.6643 A 88,96.95961 0 0 1 440,548.56891 88,96.95961 0 0 1 374.06836,515.73659 180,158.66117 0 0 0 294.17578,570.97879 160,125.60676 0 0 0 440,645 160,125.60676 0 0 0 585.91992,570.77391 180,158.66117 0 0 0 505.99805,515.6643 Z" />
    <path
       id="path418"
       style="fill:#333333;stroke-width:0.938857"
       d="m 519.98826,452.54757 c -22.31205,6.0034 -49.94804,9.57522 -79.88476,9.61163 -0.0224,2e-5 -0.044,-10e-6 -0.0664,0 h -0.0664 c -29.95398,0 -57.60975,-3.54144 -79.9375,-9.52382 a 80,88.145091 0 0 0 -0.0332,0.50444 80,88.145091 0 0 0 80,88.14508 80,88.145091 0 0 0 80,-88.14508 80,88.145091 0 0 0 -0.0117,-0.59225 z" />
    <path
       id="path2363"
       style="fill:#e6e6e6;stroke:none;stroke-width:0.890676;stroke-opacity:0.00304877"
       d="m 502.43164,463.43833 c -15.69474,3.39745 -33.67562,5.55339 -52.9082,6.10818 4.08511,7.25966 13.94415,12.38506 25.47656,12.38506 14.56313,0 26.47579,-8.16514 27.43164,-18.49324 z m -124.85547,0.0671 c 1.0013,10.29621 12.89236,18.42607 27.42383,18.42607 11.52725,0 21.3842,-5.12023 25.47266,-12.37473 -19.22671,-0.53523 -37.20435,-2.67118 -52.89649,-6.05136 z" />
  </g>
  <g
     id="layer3"
     transform="translate(-294.17578,-346.22894)">
    <path
       id="path598"
       style="fill:#333333;stroke:none;stroke-width:0.840918;stroke-opacity:0.00304877"
       d="m 457.43945,249.86133 c -15.06599,0.30789 -13.85742,4.1331 -16.48242,4.13672 -0.32792,-0.0981 -0.65388,-0.19558 -0.97851,-0.29493 -0.3245,0.0998 -0.65074,0.19832 -0.97852,0.29688 -3,0 -1,-5 -24,-4 -6.69359,0.29103 -17,1 -21,6 -4,5 -6.57464,19.29857 -9,29 -5,20 -4.99933,20.99985 -6.18945,16.86133 C 377.49072,297.27172 377.86945,289.74429 377,290 c -28.57832,8.40507 -46.91119,15.51696 -47,30 0,24.85281 49.24868,45 110,45 0.0184,0 0.0363,0 0.0547,0 0.0184,-2e-5 0.0363,3e-5 0.0547,0 60.75126,-0.0838 109.97373,-20.29956 109.93945,-45.15234 -0.10879,-14.48291 -18.45113,-21.56795 -47.04102,-29.9336 -0.8698,-0.25451 -0.48142,7.27186 -1.79492,11.86328 -1.18441,4.14016 -1.18531,3.13957 -6.21289,-16.85351 -2.43874,-9.69808 -5.03412,-23.99185 -9.04102,-28.98633 -4.00689,-4.99448 -14.31382,-5.69086 -21.00781,-5.97266 -2.87517,-0.12103 -5.35943,-0.1475 -7.51172,-0.10351 z"
       class="UnoptimicedTransforms"
       transform="matrix(1.1078573,0,0,0.97652192,-47.48429,102.25334)" />
  </g>
</svg>
