<?xml version="1.0" encoding="UTF-8" standalone="no"?>
<!-- Created with Inkscape (http://www.inkscape.org/) -->

<svg
   width="291.74414"
   height="338.9537"
   viewBox="0 0 291.74414 338.9537"
   version="1.1"
   id="SVGRoot"
   xmlns="http://www.w3.org/2000/svg"
   xmlns:svg="http://www.w3.org/2000/svg">
  <defs
     id="defs9" />
  <g
     id="layer2"
     transform="translate(-294.17578,-306.0463)">
    <path
       id="rect2243"
       style="fill:#333333;stroke-width:1.4113;stroke-opacity:0.00304877"
       d="M 364.90384,474.06367 302.46543,485.30001 413.38667,570.3 437.5,576.18281 461.61333,570.3 572.53457,485.30001 514.57786,474.87032 a 85.006233,110.16505 0 0 1 -74.66654,58.0957 85.006233,110.16505 0 0 1 -75.00748,-58.90235 z" />
  </g>
  <g
     id="layer1"
     transform="translate(-294.17578,-306.0463)">
    <path
       id="path308"
       style="fill:#333333"
       d="M 505.99805,498.26953 A 88,110 0 0 1 440,535.59961 88,110 0 0 1 374.06836,498.35156 180,180 0 0 0 294.17578,561.02344 160,142.5 0 0 0 440,645 160,142.5 0 0 0 585.91992,560.79102 180,180 0 0 0 505.99805,498.26953 Z" />
    <path
       id="path418"
       style="fill:#333333"
       d="m 519.98826,426.66406 c -22.31205,6.81081 -49.94804,10.86301 -79.88476,10.9043 -0.0224,4e-5 -0.044,-2e-5 -0.0664,0 h -0.0664 c -29.95398,0 -57.60975,-4.01773 -79.9375,-10.80469 a 80,100 0 0 0 -0.0332,0.57227 80,100 0 0 0 80,100 80,100 0 0 0 80,-100 80,100 0 0 0 -0.0117,-0.67188 z" />
    <path
       id="path2363"
       style="fill:#e6e6e6;stroke:none;stroke-width:0.948683;stroke-opacity:0.00304877"
       d="m 502.43164,439.01953 c -15.69474,3.85438 -33.67562,6.30029 -52.9082,6.92969 C 453.60855,454.18525 463.46759,460 475,460 c 14.56313,0 26.47579,-9.26329 27.43164,-20.98047 z m -124.85547,0.0762 C 378.57747,450.77672 390.46853,460 405,460 c 11.52725,0 21.3842,-5.80888 25.47266,-14.03906 -19.22671,-0.60719 -37.20435,-3.03044 -52.89649,-6.86524 z" />
  </g>
  <g
     id="layer3"
     transform="translate(-294.17578,-306.0463)">
    <path
       id="path598"
       style="fill:#333333;stroke:none;stroke-width:0.840918;stroke-opacity:0.00304877"
       d="m 457.43945,249.86133 c -15.06599,0.30789 -13.85742,4.1331 -16.48242,4.13672 -0.32792,-0.0981 -0.65388,-0.19558 -0.97851,-0.29493 -0.3245,0.0998 -0.65074,0.19832 -0.97852,0.29688 -3,0 -1,-5 -24,-4 -6.69359,0.29103 -17,1 -21,6 -4,5 -6.57464,19.29857 -9,29 -5,20 -4.99933,20.99985 -6.18945,16.86133 C 377.49072,297.27172 377.86945,289.74429 377,290 c -28.57832,8.40507 -46.91119,15.51696 -47,30 0,24.85281 49.24868,45 110,45 0.0184,0 0.0363,0 0.0547,0 0.0184,-2e-5 0.0363,3e-5 0.0547,0 60.75126,-0.0838 109.97373,-20.29956 109.93945,-45.15234 -0.10879,-14.48291 -18.45113,-21.56795 -47.04102,-29.9336 -0.8698,-0.25451 -0.48142,7.27186 -1.79492,11.86328 -1.18441,4.14016 -1.18531,3.13957 -6.21289,-16.85351 -2.43874,-9.69808 -5.03412,-23.99185 -9.04102,-28.98633 -4.00689,-4.99448 -14.31382,-5.69086 -21.00781,-5.97266 -2.87517,-0.12103 -5.35943,-0.1475 -7.51172,-0.10351 z"
       class="UnoptimicedTransforms"
       transform="matrix(1.1078573,0,0,1.1078573,-47.48429,29.257661)" />
  </g>
</svg>
