<?xml version="1.0" encoding="UTF-8" standalone="no"?>
<!-- Created with Inkscape (http://www.inkscape.org/) -->

<svg
   width="22.421555mm"
   height="21.445999mm"
   viewBox="0 0 22.421555 21.445999"
   version="1.1"
   id="svg5"
   xml:space="preserve"
   xmlns:inkscape="http://www.inkscape.org/namespaces/inkscape"
   xmlns:sodipodi="http://sodipodi.sourceforge.net/DTD/sodipodi-0.dtd"
   xmlns="http://www.w3.org/2000/svg"
   xmlns:svg="http://www.w3.org/2000/svg"><sodipodi:namedview
     id="namedview7"
     pagecolor="#505050"
     bordercolor="#eeeeee"
     borderopacity="1"
     inkscape:showpageshadow="0"
     inkscape:pageopacity="0"
     inkscape:pagecheckerboard="0"
     inkscape:deskcolor="#505050"
     inkscape:document-units="mm"
     showgrid="false" /><defs
     id="defs2" /><g
     inkscape:label="Layer 1"
     inkscape:groupmode="layer"
     id="layer1"
     transform="translate(-87.252871,-103.70607)"><g
       id="g66"
       transform="matrix(0.26458333,0,0,0.26458333,85.385266,101.34084)"
       inkscape:export-filename="Plus_HandDrawn.svg"
       inkscape:export-xdpi="96"
       inkscape:export-ydpi="96"
       style="fill:#c8ab37"><g
         display="none"
         id="g17"
         style="fill:#c8ab37"><circle
           display="inline"
           opacity="0.2"
           fill="none"
           stroke="#000000"
           stroke-width="3"
           stroke-linecap="round"
           stroke-linejoin="round"
           stroke-miterlimit="10"
           cx="50"
           cy="50"
           r="39.083"
           id="circle9"
           style="fill:#c8ab37" /><g
           display="inline"
           opacity="0.2"
           id="g15"
           style="fill:#c8ab37"><line
             fill="none"
             stroke="#000000"
             stroke-width="3"
             stroke-linecap="round"
             stroke-linejoin="round"
             stroke-miterlimit="10"
             x1="50"
             y1="28.895"
             x2="50"
             y2="71.105003"
             id="line11"
             style="fill:#c8ab37" /><line
             fill="none"
             stroke="#000000"
             stroke-width="3"
             stroke-linecap="round"
             stroke-linejoin="round"
             stroke-miterlimit="10"
             x1="28.895"
             y1="50"
             x2="71.105003"
             y2="50"
             id="line13"
             style="fill:#c8ab37" /></g></g><g
         id="g37"
         style="fill:#c8ab37"><g
           id="g23"
           style="fill:#c8ab37"><g
             id="g21"
             style="fill:#c8ab37"><path
               d="M 13.5,49 C 13.406,30.008 34.993,12.139 53.608,15.331 72.206,18.519 86.424,33.414 85.699,52.566 84.986,71.39 67.332,83.718 49.808,83.99 41.203,84.123 31.766,81.949 24.223,77.788 19.824,75.361 16.323,71.494 14.715,66.715 13.008,61.64 13.773,55.725 12.892,50.454 12.255,46.644 6.474,48.265 7.107,52.049 8.101,58 7.493,64.039 9.441,69.832 c 1.632,4.851 5.44,8.654 9.427,11.645 8.373,6.28 20.73,8.39 30.94,8.515 C 71.272,90.254 90.081,74.226 91.699,52.568 93.376,30.118 74.231,11.725 52.781,9.162 31.104,6.569 7.392,27.047 7.5,49 c 0.02,3.868 6.02,3.87 6,0 z"
               id="path19"
               style="fill:#c8ab37" /></g></g><g
           id="g29"
           style="fill:#c8ab37"><g
             id="g27"
             style="fill:#c8ab37"><path
               d="m 47.5,28.75 c 0.396,7.886 0.44,15.75 -0.131,23.628 -0.277,3.824 -1.022,7.571 -1.48,11.372 -0.173,1.44 -0.388,2.883 -0.39,4.337 -0.001,0.87 -0.65,3.31 0.253,1.572 1.828,0.239 3.655,0.478 5.483,0.717 -0.031,-0.141 -0.062,-0.282 -0.093,-0.423 -0.826,-3.779 -6.609,-2.176 -5.785,1.595 0.03,0.141 0.062,0.283 0.092,0.424 0.548,2.503 4.308,2.978 5.483,0.716 0.721,-1.384 0.557,-3.084 0.566,-4.601 0.025,-3.982 1.094,-7.89 1.501,-11.837 0.943,-9.157 0.96,-18.313 0.5,-27.5 -0.192,-3.85 -6.192,-3.869 -5.999,0 z"
               id="path25"
               style="fill:#c8ab37" /></g></g><g
           id="g35"
           style="fill:#c8ab37"><g
             id="g33"
             style="fill:#c8ab37"><path
               d="m 25.5,52.25 c 7.459,0.878 14.935,0.989 22.437,0.968 7.383,-0.02 15.253,1.028 22.563,0.282 3.811,-0.389 3.849,-6.393 0,-6 -6.72,0.686 -13.905,-0.322 -20.69,-0.29 -8.126,0.038 -16.229,-0.009 -24.31,-0.96 -3.838,-0.452 -3.795,5.553 0,6 z"
               id="path31"
               style="fill:#c8ab37" /></g></g></g></g></g></svg>
