<?xml version="1.0" encoding="UTF-8" standalone="no"?>
<!-- Created with Inkscape (http://www.inkscape.org/) -->

<svg
   width="202.95074"
   height="202.40991"
   viewBox="0 0 202.95074 202.40991"
   version="1.1"
   id="SVGRoot"
   xml:space="preserve"
   xmlns="http://www.w3.org/2000/svg"
   xmlns:svg="http://www.w3.org/2000/svg"><defs
     id="defs132" /><g
     id="layer1"
     transform="translate(-314.39691,-444.91833)"><path
       stroke="none"
       fill="black"
       d="m 389.98179,550.05423 c 1,-1 -39.46033,-41.94873 -53,-67 -2.50597,-4.63658 -3.97126,-9.83091 -5,-15 -0.95296,-4.78829 -1.65454,-10.39351 -1.04126,-14.60953 0.36666,-2.52063 2.90524,-5.55403 4.73968,-6.94128 2.07439,-1.56871 7.92457,-1.78494 8.30158,-1.44919 8.3254,7.41429 26.77963,26.55465 40,40 7.21139,7.33411 14.26051,14.70752 21.44779,22.18407 6.55221,6.81593 12.31614,17.81593 14.55221,17.81593 2,0 21.85434,-26.11001 34,-38 10.98029,-10.74915 22.19891,-21.5004 35,-30 2.48378,-1.64917 5.09833,-3.31501 8,-4 1.62208,-0.38292 3.37792,-0.38292 5,0 2.90167,0.68499 5.58134,2.25673 8,4 2.29454,1.65381 4.77476,3.45073 6,6 1.30756,2.72055 1.75264,6.07688 1,9 -1.7295,6.71714 -7.65426,11.59393 -12,17 -8.53565,10.61829 -18,21 -27.54445,30.19524 -10.70592,10.31422 -29.45555,27.80476 -34.45555,31.80476 -0.58203,0.46562 0.43906,1.50918 1,2 8,7 18,14 27,24 4.73029,5.25588 10.23171,9.77856 15,15 7.02233,7.68969 13.54045,15.83185 20,24 2.06765,2.61456 4.63943,4.95698 6,8 0.69376,1.55164 0.83252,3.3086 1,5 0.16423,1.65856 0.56738,3.43288 0,5 -1.77254,4.89584 -5.43109,9.50277 -10,12 -2.35817,1.2889 -5.37052,1.55505 -8,1 -5.70523,-1.2043 -10.32928,-5.50939 -15,-9 -13.41696,-10.02699 -24.73539,-22.59233 -37,-34 -9.30952,-8.65905 -22.26032,-27.21905 -24.26032,-27.21905 -1.41421,0 -13.44131,11.29948 -21.60952,18.21905 -12.49866,10.58804 -24.26602,22.27596 -38.13016,31 -5.33691,3.35826 -11.05794,6.2973 -17.1095,8.06907 -4.80342,1.40634 -9.90868,2.41266 -14.8905,1.93093 -3.1476,-0.30436 -6.43463,-1.15098 -9,-3 -1.35207,-0.97452 -2.47295,-2.41886 -3,-4 -0.73786,-2.21359 -0.8207,-4.81576 0,-7 1.2463,-3.31697 4.57922,-5.41246 7,-8 7.08523,-7.57331 14.66667,-14.66667 22,-22 7.66667,-7.66667 15.15312,-15.51789 23,-23 3.58633,-3.41962 7.18028,-6.84322 11,-10 3.85413,-3.18522 11,-8 12,-9 z"
       id="path667" /></g></svg>
